<svg width="42" height="53" viewBox="0 0 42 53" fill="none" xmlns="http://www.w3.org/2000/svg">
<path d="M16.7748 41.8288V14.152L19.9046 15.7069V39.3841L35.8664 44.3166V8.24346L26.4771 11.6642L21.1565 9.48736L41.5 0.780041V51.78L16.7748 41.8288Z" fill="white"/>
<path d="M25.5382 12.2861L0.5 0.780041V51.78L21.7824 44.6276L15.5229 42.1398L6.44657 44.3166V9.48736L22.0954 15.3959L21.7824 38.7191L25.5382 39.963V12.2861Z" fill="white"/>
<path d="M16.7748 41.8288V14.152L19.9046 15.7069V39.3841L35.8664 44.3166V8.24346L26.4771 11.6642L21.1565 9.48736L41.5 0.780041V51.78L16.7748 41.8288Z" stroke="#101D29" stroke-opacity="0.7"/>
<path d="M25.5382 12.2861L0.5 0.780041V51.78L21.7824 44.6276L15.5229 42.1398L6.44657 44.3166V9.48736L22.0954 15.3959L21.7824 38.7191L25.5382 39.963V12.2861Z" stroke="#101D29" stroke-opacity="0.7"/>
</svg>
